<svg width="29" height="35" viewBox="0 0 29 35" fill="none" xmlns="http://www.w3.org/2000/svg">
<path d="M25.2482 13.4503C23.2819 14.6232 22.0675 16.6338 22.0675 18.8678C22.0675 21.381 23.6289 23.6709 26 24.6203C25.5373 26.0724 24.8434 27.4128 23.9759 28.6415C22.7036 30.3729 21.3735 32.1601 19.4072 32.1601C17.441 32.1601 16.8627 31.0431 14.5494 31.0431C12.294 31.0431 11.4843 32.2159 9.63373 32.2159C7.78313 32.2159 6.51084 30.5963 5.06506 28.5857C3.15663 25.7932 2.05783 22.5539 2 19.147C2 13.6179 5.7012 10.6578 9.40241 10.6578C11.3687 10.6578 12.988 11.8865 14.2024 11.8865C15.359 11.8865 17.2096 10.602 19.4072 10.602C21.7205 10.5461 23.9181 11.6073 25.2482 13.4503ZM18.3663 8.25627C19.3494 7.13927 19.8699 5.74302 19.9277 4.29092C19.9277 4.12337 19.9277 3.89997 19.8699 3.73242C18.1928 3.89997 16.6313 4.68187 15.5325 5.91057C14.5494 6.97172 13.9711 8.31212 13.9133 9.76423C13.9133 9.93178 13.9133 10.0993 13.9711 10.2669C14.0867 10.2669 14.2602 10.3227 14.3759 10.3227C15.9373 10.211 17.3831 9.42913 18.3663 8.25627Z" fill="white"/>
</svg>
