<svg width="24" height="24" viewBox="0 0 24 24" fill="none" xmlns="http://www.w3.org/2000/svg">
<g clip-path="url(#clip0_375_19)">
<mask id="mask0_375_19" style="mask-type:luminance" maskUnits="userSpaceOnUse" x="0" y="0" width="24" height="24">
<path d="M23.7695 9.77372H12.2556V14.3873H18.8716C18.7652 15.0403 18.5264 15.6826 18.1767 16.2683C17.776 16.9393 17.2807 17.4502 16.7729 17.8392C15.2521 19.0046 13.479 19.2429 12.2476 19.2429C9.13691 19.2429 6.47903 17.2325 5.45011 14.5006C5.40859 14.4014 5.38102 14.299 5.34744 14.1978C5.12007 13.5025 4.99584 12.7661 4.99584 12.0008C4.99584 11.2042 5.13037 10.4417 5.37566 9.7216C6.34319 6.88141 9.06099 4.76006 12.2498 4.76006C12.8912 4.76006 13.5089 4.83641 14.0946 4.98869C15.4333 5.3367 16.3801 6.02212 16.9603 6.56428L20.4613 3.13576C18.3317 1.18317 15.5555 2.95218e-09 12.244 2.95218e-09C9.59665 -5.69792e-05 7.1525 0.824781 5.1496 2.21878C3.52531 3.34928 2.19316 4.86288 1.29412 6.62075C0.457891 8.25066 0 10.0569 0 11.999C0 13.9411 0.458591 15.7661 1.29483 17.381V17.3918C2.1781 19.1062 3.46975 20.5823 5.0396 21.7076C6.41104 22.6907 8.87017 24 12.244 24C14.1842 24 15.9038 23.6502 17.4203 22.9946C18.5142 22.5217 19.4835 21.9049 20.3611 21.1122C21.5206 20.0647 22.4288 18.7691 23.0486 17.2785C23.6684 15.7878 24 14.1022 24 12.2747C24 11.4236 23.9145 10.5592 23.7695 9.77363V9.77372Z" fill="white"/>
</mask>
<g mask="url(#mask0_375_19)">
<g filter="url(#filter0_f_375_19)">
<path d="M-0.177734 12.0801C-0.165008 13.9916 0.379665 15.9638 1.20412 17.5558V17.5668C1.79983 18.723 2.61399 19.6363 3.5413 20.5413L9.14205 18.4977C8.08242 17.9594 7.92073 17.6296 7.16115 17.0278C6.38493 16.245 5.8064 15.3465 5.44612 14.2929H5.4316L5.44612 14.2819C5.20909 13.5862 5.18571 12.8476 5.17697 12.0801H-0.177734Z" fill="url(#paint0_radial_375_19)"/>
</g>
<g filter="url(#filter1_f_375_19)">
<path d="M12.2544 -0.0878906C11.7009 1.8569 11.9125 3.7473 12.2544 4.84723C12.8937 4.8477 13.5095 4.9239 14.0934 5.07571C15.432 5.42372 16.3788 6.10916 16.959 6.65132L20.5496 3.1352C18.4225 1.18494 15.8627 -0.0848179 12.2544 -0.0878906Z" fill="url(#paint1_radial_375_19)"/>
</g>
<g filter="url(#filter2_f_375_19)">
<path d="M12.2427 -0.103516C9.52736 -0.103574 7.02047 0.74244 4.96616 2.17223C4.20339 2.70312 3.50341 3.31638 2.88013 3.99833C2.71684 5.5302 4.10245 7.41301 6.84637 7.39742C8.1777 5.84878 10.1467 4.84681 12.3382 4.84681C12.3402 4.84681 12.3422 4.84697 12.3442 4.84698L12.2547 -0.103165C12.2506 -0.103168 12.2467 -0.103516 12.2427 -0.103516Z" fill="url(#paint2_radial_375_19)"/>
</g>
<g filter="url(#filter3_f_375_19)">
<path d="M21.2056 12.6335L18.782 14.2985C18.6756 14.9514 18.4367 15.5937 18.087 16.1794C17.6863 16.8505 17.191 17.3614 16.6833 17.7504C15.1656 18.9134 13.3971 19.1528 12.1661 19.1538C10.8936 21.321 10.6705 22.4066 12.2556 24.1557C14.2169 24.1542 15.9556 23.8002 17.4893 23.1372C18.598 22.658 19.5802 22.0328 20.4696 21.2295C21.6447 20.168 22.5651 18.8549 23.1933 17.3443C23.8214 15.8337 24.1573 14.1255 24.1573 12.2734L21.2056 12.6335Z" fill="url(#paint3_radial_375_19)"/>
</g>
<g filter="url(#filter4_f_375_19)">
<path d="M12.076 9.59753V14.5617H23.7366C23.8391 13.8819 24.1783 13.0021 24.1783 12.2738C24.1783 11.4227 24.0929 10.3831 23.9479 9.59753H12.076Z" fill="#3086FF"/>
</g>
<g filter="url(#filter5_f_375_19)">
<path d="M2.93614 3.82227C2.21656 4.60958 1.60182 5.49081 1.1144 6.44385C0.278183 8.07375 -0.179688 10.0553 -0.179688 11.9973C-0.179688 12.0247 -0.177422 12.0515 -0.17724 12.0788C0.193097 12.7889 4.93829 12.6529 5.17746 12.0788C5.17716 12.052 5.17415 12.0259 5.17415 11.999C5.17415 11.2025 5.30872 10.6154 5.554 9.89525C5.8566 9.00697 6.3304 8.18899 6.93626 7.48424C7.0736 7.3089 7.43993 6.93195 7.54681 6.70585C7.58753 6.61973 7.4729 6.57139 7.46649 6.54108C7.45932 6.50717 7.30563 6.53444 7.2712 6.50918C7.16188 6.42899 6.94539 6.38712 6.81394 6.3499C6.53296 6.27034 6.06731 6.0949 5.80867 5.91303C4.99113 5.33815 3.71527 4.65146 2.93614 3.82227Z" fill="url(#paint4_radial_375_19)"/>
</g>
<g filter="url(#filter6_f_375_19)">
<path d="M5.8262 6.54615C7.72201 7.69454 8.26721 5.9665 9.52765 5.42575L7.33507 0.878906C6.52851 1.2179 5.76648 1.63907 5.05943 2.13117C4.00351 2.86608 3.07105 3.76289 2.30078 4.78347L5.8262 6.54615Z" fill="url(#paint5_radial_375_19)"/>
</g>
<g filter="url(#filter7_f_375_19)">
<path d="M6.59746 18.1455C4.05259 19.0642 3.65418 19.0971 3.41992 20.6743C3.86757 21.1111 4.34854 21.5152 4.85964 21.8816C6.23108 22.8647 8.86914 24.174 12.243 24.174C12.2469 24.174 12.2507 24.1736 12.2547 24.1736V19.0662C12.2521 19.0662 12.2492 19.0663 12.2467 19.0663C10.9833 19.0663 9.9737 18.7345 8.93857 18.1574C8.68335 18.0152 8.22032 18.3972 7.98494 18.2264C7.66031 17.9909 6.87904 18.4294 6.59746 18.1455Z" fill="url(#paint6_radial_375_19)"/>
</g>
<g opacity="0.5" filter="url(#filter8_f_375_19)">
<path d="M10.7656 18.9062V24.0861C11.2377 24.1414 11.729 24.1749 12.2443 24.1749C12.761 24.1749 13.2608 24.1484 13.7464 24.0996V18.9412C13.2022 19.0342 12.6896 19.0673 12.248 19.0673C11.7394 19.0673 11.2448 19.0081 10.7656 18.9062Z" fill="url(#paint7_linear_375_19)"/>
</g>
</g>
</g>
<defs>
<filter id="filter0_f_375_19" x="-0.647814" y="11.61" width="10.26" height="9.40134" filterUnits="userSpaceOnUse" color-interpolation-filters="sRGB">
<feFlood flood-opacity="0" result="BackgroundImageFix"/>
<feBlend mode="normal" in="SourceGraphic" in2="BackgroundImageFix" result="shape"/>
<feGaussianBlur stdDeviation="0.23504" result="effect1_foregroundBlur_375_19"/>
</filter>
<filter id="filter1_f_375_19" x="11.444" y="-0.55797" width="9.57566" height="7.67942" filterUnits="userSpaceOnUse" color-interpolation-filters="sRGB">
<feFlood flood-opacity="0" result="BackgroundImageFix"/>
<feBlend mode="normal" in="SourceGraphic" in2="BackgroundImageFix" result="shape"/>
<feGaussianBlur stdDeviation="0.23504" result="effect1_foregroundBlur_375_19"/>
</filter>
<filter id="filter2_f_375_19" x="2.39711" y="-0.573595" width="10.4172" height="8.44114" filterUnits="userSpaceOnUse" color-interpolation-filters="sRGB">
<feFlood flood-opacity="0" result="BackgroundImageFix"/>
<feBlend mode="normal" in="SourceGraphic" in2="BackgroundImageFix" result="shape"/>
<feGaussianBlur stdDeviation="0.23504" result="effect1_foregroundBlur_375_19"/>
</filter>
<filter id="filter3_f_375_19" x="10.6686" y="11.8034" width="13.9588" height="12.8224" filterUnits="userSpaceOnUse" color-interpolation-filters="sRGB">
<feFlood flood-opacity="0" result="BackgroundImageFix"/>
<feBlend mode="normal" in="SourceGraphic" in2="BackgroundImageFix" result="shape"/>
<feGaussianBlur stdDeviation="0.23504" result="effect1_foregroundBlur_375_19"/>
</filter>
<filter id="filter4_f_375_19" x="11.606" y="9.12745" width="13.0425" height="5.90439" filterUnits="userSpaceOnUse" color-interpolation-filters="sRGB">
<feFlood flood-opacity="0" result="BackgroundImageFix"/>
<feBlend mode="normal" in="SourceGraphic" in2="BackgroundImageFix" result="shape"/>
<feGaussianBlur stdDeviation="0.23504" result="effect1_foregroundBlur_375_19"/>
</filter>
<filter id="filter5_f_375_19" x="-0.649767" y="3.35219" width="8.67539" height="9.67954" filterUnits="userSpaceOnUse" color-interpolation-filters="sRGB">
<feFlood flood-opacity="0" result="BackgroundImageFix"/>
<feBlend mode="normal" in="SourceGraphic" in2="BackgroundImageFix" result="shape"/>
<feGaussianBlur stdDeviation="0.23504" result="effect1_foregroundBlur_375_19"/>
</filter>
<filter id="filter6_f_375_19" x="-1.00407" y="-2.42594" width="13.8366" height="12.6629" filterUnits="userSpaceOnUse" color-interpolation-filters="sRGB">
<feFlood flood-opacity="0" result="BackgroundImageFix"/>
<feBlend mode="normal" in="SourceGraphic" in2="BackgroundImageFix" result="shape"/>
<feGaussianBlur stdDeviation="1.65243" result="effect1_foregroundBlur_375_19"/>
</filter>
<filter id="filter7_f_375_19" x="2.94984" y="17.6549" width="9.77488" height="6.98911" filterUnits="userSpaceOnUse" color-interpolation-filters="sRGB">
<feFlood flood-opacity="0" result="BackgroundImageFix"/>
<feBlend mode="normal" in="SourceGraphic" in2="BackgroundImageFix" result="shape"/>
<feGaussianBlur stdDeviation="0.23504" result="effect1_foregroundBlur_375_19"/>
</filter>
<filter id="filter8_f_375_19" x="10.2955" y="18.4362" width="3.92099" height="6.20884" filterUnits="userSpaceOnUse" color-interpolation-filters="sRGB">
<feFlood flood-opacity="0" result="BackgroundImageFix"/>
<feBlend mode="normal" in="SourceGraphic" in2="BackgroundImageFix" result="shape"/>
<feGaussianBlur stdDeviation="0.23504" result="effect1_foregroundBlur_375_19"/>
</filter>
<radialGradient id="paint0_radial_375_19" cx="0" cy="0" r="1" gradientTransform="matrix(-0.498722 -11.9519 17.9311 -0.717223 9.02993 20.3612)" gradientUnits="userSpaceOnUse">
<stop offset="0.141612" stop-color="#1ABD4D"/>
<stop offset="0.247515" stop-color="#6EC30D"/>
<stop offset="0.311547" stop-color="#8AC502"/>
<stop offset="0.366013" stop-color="#A2C600"/>
<stop offset="0.445673" stop-color="#C8C903"/>
<stop offset="0.540305" stop-color="#EBCB03"/>
<stop offset="0.615636" stop-color="#F7CD07"/>
<stop offset="0.699345" stop-color="#FDCD04"/>
<stop offset="0.771242" stop-color="#FDCE05"/>
<stop offset="0.860566" stop-color="#FFCE0A"/>
</radialGradient>
<radialGradient id="paint1_radial_375_19" cx="0" cy="0" r="1" gradientTransform="matrix(8.46967 -2.03557e-05 -1.19045e-05 10.7093 20.2137 6.39691)" gradientUnits="userSpaceOnUse">
<stop offset="0.408458" stop-color="#FB4E5A"/>
<stop offset="1" stop-color="#FF4540"/>
</radialGradient>
<radialGradient id="paint2_radial_375_19" cx="0" cy="0" r="1" gradientTransform="matrix(-11.8666 6.43492 8.91875 15.766 15.5886 -1.65372)" gradientUnits="userSpaceOnUse">
<stop offset="0.231273" stop-color="#FF4541"/>
<stop offset="0.311547" stop-color="#FF4540"/>
<stop offset="0.457516" stop-color="#FF4640"/>
<stop offset="0.540305" stop-color="#FF473F"/>
<stop offset="0.699346" stop-color="#FF5138"/>
<stop offset="0.771242" stop-color="#FF5B33"/>
<stop offset="0.860566" stop-color="#FF6C29"/>
<stop offset="1" stop-color="#FF8C18"/>
</radialGradient>
<radialGradient id="paint3_radial_375_19" cx="0" cy="0" r="1" gradientTransform="matrix(-21.5204 -27.5047 -10.3696 7.77752 12.432 22.6024)" gradientUnits="userSpaceOnUse">
<stop offset="0.131546" stop-color="#0CBA65"/>
<stop offset="0.209784" stop-color="#0BB86D"/>
<stop offset="0.297297" stop-color="#09B479"/>
<stop offset="0.396257" stop-color="#08AD93"/>
<stop offset="0.477124" stop-color="#0AA6A9"/>
<stop offset="0.568425" stop-color="#0D9CC6"/>
<stop offset="0.667385" stop-color="#1893DD"/>
<stop offset="0.768727" stop-color="#258BF1"/>
<stop offset="0.858506" stop-color="#3086FF"/>
</radialGradient>
<radialGradient id="paint4_radial_375_19" cx="0" cy="0" r="1" gradientTransform="matrix(-1.52295 12.8522 18.1501 2.06168 11.2034 2.1624)" gradientUnits="userSpaceOnUse">
<stop offset="0.366013" stop-color="#FF4E3A"/>
<stop offset="0.457516" stop-color="#FF8A1B"/>
<stop offset="0.540305" stop-color="#FFA312"/>
<stop offset="0.615636" stop-color="#FFB60C"/>
<stop offset="0.771242" stop-color="#FFCD0A"/>
<stop offset="0.860566" stop-color="#FECF0A"/>
<stop offset="0.915033" stop-color="#FECF08"/>
<stop offset="1" stop-color="#FDCD01"/>
</radialGradient>
<radialGradient id="paint5_radial_375_19" cx="0" cy="0" r="1" gradientTransform="matrix(-4.40212 4.76677 -13.7322 -12.1566 9.06171 2.03076)" gradientUnits="userSpaceOnUse">
<stop offset="0.315904" stop-color="#FF4C3C"/>
<stop offset="0.603818" stop-color="#FF692C"/>
<stop offset="0.726837" stop-color="#FF7825"/>
<stop offset="0.884534" stop-color="#FF8D1B"/>
<stop offset="1" stop-color="#FF9F13"/>
</radialGradient>
<radialGradient id="paint6_radial_375_19" cx="0" cy="0" r="1" gradientTransform="matrix(-11.8666 -6.43492 8.91876 -15.766 15.5886 25.6512)" gradientUnits="userSpaceOnUse">
<stop offset="0.231273" stop-color="#0FBC5F"/>
<stop offset="0.311547" stop-color="#0FBC5F"/>
<stop offset="0.366013" stop-color="#0FBC5E"/>
<stop offset="0.457516" stop-color="#0FBC5D"/>
<stop offset="0.540305" stop-color="#12BC58"/>
<stop offset="0.699346" stop-color="#28BF3C"/>
<stop offset="0.771242" stop-color="#38C02B"/>
<stop offset="0.860566" stop-color="#52C218"/>
<stop offset="0.915033" stop-color="#67C30F"/>
<stop offset="1" stop-color="#86C504"/>
</radialGradient>
<linearGradient id="paint7_linear_375_19" x1="10.7656" y1="21.5406" x2="13.7464" y2="21.5406" gradientUnits="userSpaceOnUse">
<stop stop-color="#0FBC5C"/>
<stop offset="1" stop-color="#0CBA65"/>
</linearGradient>
<clipPath id="clip0_375_19">
<rect width="24" height="24" fill="white"/>
</clipPath>
</defs>
</svg>
