<svg width="48" height="48" viewBox="0 0 48 48" fill="none" xmlns="http://www.w3.org/2000/svg">
<rect width="48" height="48" rx="24" fill="white"/>
<path d="M15 24C15 19.7574 15 17.636 16.318 16.318C17.636 15 19.7574 15 24 15C28.2426 15 30.364 15 31.682 16.318C33 17.636 33 19.7574 33 24C33 28.2426 33 30.364 31.682 31.682C30.364 33 28.2426 33 24 33C19.7574 33 17.636 33 16.318 31.682C15 30.364 15 28.2426 15 24Z" fill="#2F5CF0" stroke="#2F5CF0" stroke-width="1.5" stroke-linecap="round" stroke-linejoin="round"/>
<path d="M28 24C28 26.2091 26.2091 28 24 28C21.7909 28 20 26.2091 20 24C20 21.7909 21.7909 20 24 20C26.2091 20 28 21.7909 28 24Z" stroke="white" stroke-linecap="round" stroke-linejoin="round"/>
<path d="M29.3748 18.7502H29.2498M29.4998 18.7502C29.4998 18.8883 29.3878 19.0002 29.2498 19.0002C29.1117 19.0002 28.9998 18.8883 28.9998 18.7502C28.9998 18.6122 29.1117 18.5002 29.2498 18.5002C29.3878 18.5002 29.4998 18.6122 29.4998 18.7502Z" stroke="white" stroke-linecap="round" stroke-linejoin="round"/>
</svg>
