<svg width="48" height="48" viewBox="0 0 48 48" fill="none" xmlns="http://www.w3.org/2000/svg">
<rect width="48" height="48" rx="24" fill="white"/>
<path d="M27.2268 31.0936L23.9854 27.4083L22.0614 30.0819C21.4823 30.8867 21.1927 31.2891 20.8601 31.223C20.5275 31.1568 20.4005 30.6715 20.1466 29.7011L20.1465 29.701L19.6581 27.8344C19.3971 26.8371 19.2666 26.3384 18.9608 25.9584C18.9264 25.9157 18.8905 25.8743 18.8532 25.8344C18.5213 25.479 18.0584 25.2934 17.1326 24.9223C15.0892 24.1033 14.0675 23.6937 14.0047 22.9955C13.9983 22.9241 13.9984 22.8522 14.0051 22.7808C14.07 22.0829 15.0929 21.6767 17.1388 20.8645L29.0061 16.1528C31.564 15.1372 32.843 14.6295 33.5808 15.312C34.3187 15.9945 33.9868 17.3783 33.3229 20.1459L30.9318 30.1138C30.5008 31.9108 30.2852 32.8092 29.6567 32.9754C29.0282 33.1416 28.4277 32.4589 27.2268 31.0936Z" fill="#2F5CF0" stroke="#2F5CF0" stroke-width="1.5" stroke-linecap="round" stroke-linejoin="round"/>
<path d="M23.5425 28.323C23.1809 27.9462 23 27.7576 23 27.5234C23 27.2892 23.1808 27.1007 23.5425 26.7237L27.1155 23" stroke="white" stroke-linecap="round" stroke-linejoin="round"/>
</svg>
